<?xml version="1.0" standalone="no"?>
<!DOCTYPE svg PUBLIC "-//W3C//DTD SVG 20010904//EN"
 "http://www.w3.org/TR/2001/REC-SVG-20010904/DTD/svg10.dtd">
<svg version="1.0" xmlns="http://www.w3.org/2000/svg"
 width="208.000000pt" height="208.000000pt" viewBox="0 0 208.000000 208.000000"
 preserveAspectRatio="xMidYMid meet">
<metadata>
Created by potrace 1.11, written by Peter Selinger 2001-2013
</metadata>
<g transform="translate(0.000000,208.000000) scale(0.100000,-0.100000)"
fill="#000000" stroke="none">
<path d="M986 2055 c-26 -24 -26 -25 -26 -173 0 -144 1 -150 25 -176 31 -34
73 -34 109 -1 26 24 26 25 26 173 0 144 -1 150 -25 176 -31 34 -73 34 -109 1z"/>
<path d="M503 1924 c-35 -35 -28 -65 49 -201 71 -126 101 -151 155 -132 30 10
53 44 53 77 0 23 -126 242 -152 265 -30 25 -74 22 -105 -9z"/>
<path d="M1472 1933 c-11 -10 -51 -71 -87 -136 -58 -101 -66 -122 -61 -151 8
-42 60 -72 98 -57 32 12 45 30 117 154 54 94 62 113 57 143 -11 58 -80 84
-124 47z"/>
<path d="M156 1577 c-31 -31 -34 -75 -8 -105 22 -26 241 -152 264 -152 67 0
107 74 67 124 -24 30 -226 147 -266 153 -25 4 -37 0 -57 -20z"/>
<path d="M932 1589 c-160 -27 -317 -149 -392 -304 -47 -98 -64 -184 -56 -287
37 -475 611 -688 950 -353 219 217 219 567 -1 790 -129 131 -308 186 -501 154z
m271 -187 c92 -43 150 -100 194 -189 35 -72 38 -81 38 -172 0 -87 -3 -102 -31
-161 -46 -95 -101 -153 -192 -197 -72 -36 -81 -38 -171 -38 -86 0 -103 4 -161
31 -94 45 -153 102 -196 189 -32 65 -37 86 -40 157 -6 164 74 301 218 374 67
34 111 42 201 39 61 -3 91 -10 140 -33z"/>
<path d="M1815 1579 c-22 -11 -50 -27 -62 -35 -12 -8 -44 -26 -70 -40 -93 -51
-113 -84 -87 -140 12 -25 24 -35 50 -40 29 -5 50 3 151 61 65 36 126 76 136
87 25 29 22 74 -8 103 -30 30 -58 31 -110 4z"/>
<path d="M25 1094 c-23 -21 -27 -31 -22 -61 11 -64 20 -68 190 -71 151 -3 153
-3 180 22 15 14 27 34 27 46 0 29 -26 76 -45 84 -9 3 -81 6 -159 6 -140 0
-144 -1 -171 -26z"/>
<path d="M1705 1094 c-23 -22 -27 -31 -22 -62 11 -65 29 -72 197 -72 142 0
148 1 174 25 14 13 26 33 26 45 0 29 -26 76 -45 84 -9 3 -81 6 -159 6 -140 0
-144 -1 -171 -26z"/>
<path d="M326 720 c-37 -22 -70 -40 -72 -40 -13 0 -113 -72 -118 -85 -19 -51
18 -115 66 -115 22 0 34 5 108 46 164 92 182 106 185 154 1 25 -27 68 -49 74
-38 10 -50 6 -120 -34z"/>
<path d="M1623 748 c-45 -22 -49 -93 -7 -129 39 -33 220 -131 251 -136 64 -11
109 75 66 125 -25 29 -243 152 -268 151 -11 0 -30 -5 -42 -11z"/>
<path d="M650 489 c-18 -6 -47 -46 -99 -135 -63 -110 -72 -130 -67 -160 11
-58 80 -84 124 -47 11 10 51 71 87 135 59 102 67 122 61 152 -5 26 -15 38 -40
50 -19 9 -36 16 -38 15 -1 0 -14 -5 -28 -10z"/>
<path d="M1351 474 c-21 -17 -31 -35 -31 -53 0 -30 120 -246 152 -274 50 -42
136 2 125 66 -3 18 -36 85 -73 149 -54 92 -75 120 -98 128 -40 14 -40 14 -75
-16z"/>
<path d="M986 375 l-27 -25 3 -155 c3 -172 7 -181 71 -192 30 -5 40 -1 61 22
25 27 26 31 26 175 0 142 -1 148 -25 174 -31 34 -73 34 -109 1z"/>
</g>
</svg>
